<mxfile host="65bd71144e" agent="Mozilla/5.0 (Windows NT 10.0; Win64; x64) AppleWebKit/537.36 (KHTML, like Gecko) Code/1.94.2 Chrome/124.0.6367.243 Electron/30.5.1 Safari/537.36" version="24.8.3">
    <diagram id="4_1oKzCouR3PFuK9tx5N" name="Page-1">
        <mxGraphModel dx="732" dy="267" grid="1" gridSize="10" guides="1" tooltips="1" connect="1" arrows="1" fold="1" page="1" pageScale="1" pageWidth="850" pageHeight="1100" background="#FFFFFF" math="0" shadow="0">
            <root>
                <mxCell id="0"/>
                <mxCell id="1" parent="0"/>
                <mxCell id="14" value="Node 2" style="rounded=1;whiteSpace=wrap;html=1;verticalAlign=bottom;" parent="1" vertex="1">
                    <mxGeometry x="400" y="130" width="210" height="350" as="geometry"/>
                </mxCell>
                <mxCell id="11" value="Node 1" style="rounded=1;whiteSpace=wrap;html=1;verticalAlign=bottom;" parent="1" vertex="1">
                    <mxGeometry x="80" y="130" width="210" height="350" as="geometry"/>
                </mxCell>
                <mxCell id="8" value="Application" style="rounded=1;whiteSpace=wrap;html=1;fillColor=none;dashed=1;verticalAlign=top;fontSize=16;" parent="1" vertex="1">
                    <mxGeometry x="100" y="150" width="490" height="300" as="geometry"/>
                </mxCell>
                <mxCell id="17" value="Program 2" style="rounded=0;whiteSpace=wrap;html=1;verticalAlign=bottom;" parent="1" vertex="1">
                    <mxGeometry x="420" y="182.5" width="148.75" height="235" as="geometry"/>
                </mxCell>
                <mxCell id="18" value="Program 1" style="rounded=0;whiteSpace=wrap;html=1;verticalAlign=bottom;" parent="1" vertex="1">
                    <mxGeometry x="121.25" y="182.5" width="148.75" height="235" as="geometry"/>
                </mxCell>
                <mxCell id="25" value="&amp;nbsp; &amp;nbsp;NetQASM" style="edgeStyle=orthogonalEdgeStyle;rounded=0;orthogonalLoop=1;jettySize=auto;html=1;exitX=0.5;exitY=1;exitDx=0;exitDy=0;entryX=0.5;entryY=0;entryDx=0;entryDy=0;startArrow=classic;startFill=1;endSize=3;startSize=3;fontSize=11;labelBackgroundColor=none;" parent="1" source="19" target="21" edge="1">
                    <mxGeometry y="25" relative="1" as="geometry">
                        <mxPoint as="offset"/>
                    </mxGeometry>
                </mxCell>
                <mxCell id="19" value="Classical Network Processing&amp;nbsp;&lt;span style=&quot;background-color: initial;&quot;&gt;Unit&lt;/span&gt;&lt;div&gt;&lt;div&gt;(CNPU)&lt;/div&gt;&lt;/div&gt;" style="rounded=1;whiteSpace=wrap;html=1;verticalAlign=middle;" parent="1" vertex="1">
                    <mxGeometry x="140" y="200" width="110" height="70" as="geometry"/>
                </mxCell>
                <mxCell id="21" value="Quantum&amp;nbsp;&lt;span style=&quot;background-color: initial;&quot;&gt;Network&lt;/span&gt;&lt;div&gt;Processing Unit&lt;/div&gt;&lt;div&gt;(QNPU)&lt;/div&gt;" style="rounded=1;whiteSpace=wrap;html=1;verticalAlign=middle;" parent="1" vertex="1">
                    <mxGeometry x="140" y="310" width="110" height="80" as="geometry"/>
                </mxCell>
                <mxCell id="23" value="Classical Network Processing&amp;nbsp;&lt;span style=&quot;background-color: initial;&quot;&gt;Unit&lt;/span&gt;&lt;div&gt;(CNPU)&lt;/div&gt;" style="rounded=1;whiteSpace=wrap;html=1;verticalAlign=middle;" parent="1" vertex="1">
                    <mxGeometry x="439.38" y="200" width="110" height="70" as="geometry"/>
                </mxCell>
                <mxCell id="24" value="Quantum&amp;nbsp;&lt;span style=&quot;background-color: initial;&quot;&gt;Network&lt;/span&gt;&lt;div&gt;Processing Unit&lt;/div&gt;&lt;div&gt;(QNPU)&lt;/div&gt;" style="rounded=1;whiteSpace=wrap;html=1;verticalAlign=middle;" parent="1" vertex="1">
                    <mxGeometry x="440" y="310" width="110" height="80" as="geometry"/>
                </mxCell>
                <mxCell id="9" value="classical&lt;br style=&quot;font-size: 12px;&quot;&gt;messages" style="edgeStyle=orthogonalEdgeStyle;rounded=0;orthogonalLoop=1;jettySize=auto;html=1;exitX=1;exitY=0.5;exitDx=0;exitDy=0;startArrow=classic;startFill=1;fontSize=12;entryX=0;entryY=0.5;entryDx=0;entryDy=0;" parent="1" source="19" edge="1" target="23">
                    <mxGeometry x="-0.0495" relative="1" as="geometry">
                        <mxPoint as="offset"/>
                        <mxPoint x="257.5" y="300" as="sourcePoint"/>
                        <mxPoint x="460" y="235" as="targetPoint"/>
                        <Array as="points"/>
                    </mxGeometry>
                </mxCell>
                <mxCell id="10" value="entanglement" style="edgeStyle=orthogonalEdgeStyle;rounded=0;orthogonalLoop=1;jettySize=auto;html=1;exitX=1;exitY=0.5;exitDx=0;exitDy=0;entryX=0;entryY=0.5;entryDx=0;entryDy=0;startArrow=classic;startFill=1;fontSize=12;spacingLeft=-11;align=center;spacingTop=0;" parent="1" source="21" target="24" edge="1">
                    <mxGeometry x="0.0435" y="-10" relative="1" as="geometry">
                        <mxPoint as="offset"/>
                        <mxPoint x="310" y="360" as="sourcePoint"/>
                        <mxPoint x="445" y="360" as="targetPoint"/>
                    </mxGeometry>
                </mxCell>
                <mxCell id="26" value="NetQASM&amp;nbsp; &amp;nbsp; &amp;nbsp;" style="edgeStyle=orthogonalEdgeStyle;rounded=0;orthogonalLoop=1;jettySize=auto;html=1;exitX=0.5;exitY=1;exitDx=0;exitDy=0;startArrow=classic;startFill=1;endSize=3;startSize=3;fontSize=11;entryX=0.5;entryY=0;entryDx=0;entryDy=0;labelBackgroundColor=none;" parent="1" source="23" target="24" edge="1">
                    <mxGeometry x="-0.0223" y="-24" relative="1" as="geometry">
                        <mxPoint x="320" y="270" as="sourcePoint"/>
                        <mxPoint x="505" y="290" as="targetPoint"/>
                        <mxPoint x="-24" y="-24" as="offset"/>
                    </mxGeometry>
                </mxCell>
            </root>
        </mxGraphModel>
    </diagram>
</mxfile>